<?xml version="1.0" standalone="no"?>
<!DOCTYPE svg PUBLIC "-//W3C//DTD SVG 20010904//EN"
 "http://www.w3.org/TR/2001/REC-SVG-20010904/DTD/svg10.dtd">
<svg version="1.0" xmlns="http://www.w3.org/2000/svg"
 width="700.000000pt" height="907.000000pt" viewBox="0 0 700.000000 907.000000"
 preserveAspectRatio="xMidYMid meet">

<g transform="translate(0.000000,907.000000) scale(0.100000,-0.100000)"
fill="#1f1b1a" stroke="none">
<path d="M27 9047 c-16 -63 -29 -275 -24 -387 10 -196 53 -331 134 -421 71
-79 184 -113 347 -107 47 2 86 -1 86 -5 0 -4 -7 -21 -15 -37 -19 -37 -52 -163
-58 -222 l-4 -48 36 -5 c261 -42 392 -155 423 -365 19 -129 -18 -319 -101
-515 -75 -176 -80 -279 -20 -405 124 -260 359 -264 489 -9 38 75 56 173 42
228 -5 23 -6 41 -2 39 15 -5 187 -215 288 -351 266 -356 421 -650 466 -884 8
-43 20 -186 26 -318 29 -639 107 -909 329 -1145 67 -71 71 -73 69 -45 l-3 30
430 0 430 0 3 -222 2 -223 43 0 c311 -3 443 2 502 20 17 5 59 14 95 20 160 28
449 111 620 180 67 27 67 26 48 47 -19 22 -95 142 -80 128 5 -5 44 -55 85
-110 42 -55 142 -174 223 -265 334 -374 655 -781 899 -1140 43 -63 81 -119 85
-123 4 -4 106 64 226 152 l219 160 22 -27 23 -27 -10 34 c-5 19 -7 38 -4 42 3
5 1 9 -3 9 -27 0 -64 274 -82 595 -10 195 -28 260 -86 316 -27 26 -34 40 -30
59 11 57 35 359 46 574 17 335 2 779 -35 1094 l-12 102 243 0 c155 0 243 4
243 10 0 6 -88 10 -245 10 -235 0 -245 1 -245 19 0 11 -3 26 -6 35 -6 14 20
16 245 16 161 0 251 4 251 10 0 6 -90 10 -250 10 -137 0 -250 1 -250 3 0 1
-14 79 -30 172 -17 94 -33 184 -36 200 -5 27 -1 32 38 54 24 13 67 37 96 54
47 26 61 29 117 25 l63 -4 -10 25 c-40 108 -158 265 -266 359 -105 90 -181
138 -326 207 -244 116 -438 185 -901 319 -481 139 -678 206 -1320 449 -583
221 -1735 684 -1735 697 0 3 21 12 46 19 65 19 147 97 183 174 47 100 62 178
68 343 5 145 -11 379 -26 388 -13 9 -118 -41 -192 -90 -143 -95 -406 -387
-501 -556 -12 -21 -26 -38 -31 -38 -17 0 13 267 38 333 6 15 0 17 -53 17 l-59
0 -54 -150 -54 -151 -40 8 c-51 10 -176 10 -235 0 l-45 -7 -55 150 -54 150
-59 0 c-52 0 -58 -2 -52 -17 21 -53 55 -303 41 -303 -3 0 -24 28 -47 63 -184
271 -397 480 -576 564 -39 18 -74 33 -76 33 -3 0 -7 -10 -10 -23z m1631 -1264
c-3 -37 -4 -38 -48 -43 -76 -10 -106 -37 -124 -114 -9 -35 4 -46 56 -46 24 0
46 8 66 25 l29 24 -27 -117 c-36 -158 -74 -288 -111 -380 -35 -89 -100 -216
-129 -252 -17 -21 -21 -23 -30 -10 -20 29 -89 216 -111 300 -30 112 -33 289
-6 366 51 147 161 232 347 269 95 19 92 20 88 -22z m3725 -1688 c154 -20 418
-98 440 -129 9 -14 58 -170 91 -293 l25 -93 -770 0 -769 0 15 36 c58 140 217
312 350 381 103 53 187 81 294 98 116 18 189 18 324 0z m568 -572 l6 -33 -795
0 c-527 0 -793 -3 -786 -10 6 -6 293 -11 799 -12 l789 -3 13 -60 c43 -204 121
-711 111 -721 -3 -2 -382 -3 -844 -2 l-839 3 640 59 c352 32 719 66 815 75
176 17 205 31 63 31 -93 0 -1524 59 -1538 64 -5 1 24 6 65 10 41 4 338 31 660
61 322 29 650 59 730 66 80 7 151 15 158 19 8 4 -94 10 -225 14 -750 21 -1460
47 -1433 53 8 1 359 43 780 93 421 50 781 94 800 98 19 4 -330 9 -776 12
l-811 5 13 65 c8 36 21 84 30 108 l16 42 776 -2 776 -3 7 -32z m144 -875 c12
-52 36 -393 47 -662 9 -229 9 -291 0 -294 -27 -9 -70 -53 -88 -89 -25 -54 -34
-123 -24 -195 5 -34 8 -64 6 -65 -1 -2 -180 6 -397 17 -217 11 -407 20 -424
21 -26 0 -27 2 -10 9 11 5 202 53 423 107 l404 98 -134 6 c-73 4 -297 7 -497
8 -201 0 -361 5 -355 9 5 5 241 52 524 106 283 54 524 101 534 105 10 4 -255
15 -590 24 -335 10 -640 20 -679 24 -66 6 -30 13 600 119 369 61 663 114 655
117 -8 3 -96 8 -195 11 -99 3 -425 17 -725 31 -300 14 -563 25 -585 26 -22 0
-35 2 -30 4 6 3 347 32 760 65 412 34 752 63 754 66 2 2 -13 4 -35 4 -21 0
-286 11 -589 25 -302 14 -639 28 -748 32 -109 3 -200 9 -202 12 -2 4 292 58
653 121 361 62 713 124 782 136 160 28 159 28 165 2z m-31 -1384 c11 -37 49
-126 85 -198 36 -72 67 -134 69 -138 2 -4 -134 -9 -302 -10 -168 -2 -306 -1
-306 2 0 3 110 48 245 100 l245 95 -118 6 c-64 4 -222 7 -351 8 -129 0 -232 4
-228 7 7 8 607 192 627 193 10 1 21 -20 34 -65z m224 -441 c29 -47 51 -87 49
-89 -2 -3 -140 -3 -307 -2 l-304 3 245 86 c134 48 249 87 254 88 6 0 34 -38
63 -86z"/>
<path d="M520 7710 c0 -74 47 -130 110 -130 50 0 63 11 54 46 -18 77 -60 114
-129 114 -32 0 -35 -2 -35 -30z"/>
<path d="M6276 5332 c7 -7 352 -151 447 -188 18 -6 18 -2 13 62 -4 38 -9 84
-12 102 l-5 32 -226 0 c-125 0 -223 -4 -217 -8z"/>
<path d="M6355 5097 c50 -18 155 -54 234 -82 l142 -50 -228 -5 -228 -5 230
-90 230 -90 -220 -5 -220 -5 204 -75 203 -75 -212 -5 -213 -5 212 -105 c116
-57 211 -107 211 -110 0 -3 -93 -25 -208 -49 -114 -24 -214 -47 -222 -52 -10
-5 0 -11 30 -19 25 -6 123 -34 219 -61 95 -28 176 -48 178 -45 12 11 41 340
48 521 3 105 3 247 -1 318 l-7 127 -236 0 -236 -1 90 -32z"/>
<path d="M6458 4111 c-109 -20 -198 -38 -198 -41 0 -6 368 -41 418 -40 20 0
22 4 22 60 0 72 24 70 -242 21z"/>
<path d="M6535 3933 c-77 -41 -177 -95 -223 -120 -46 -25 -82 -46 -80 -48 2
-2 104 0 228 5 123 5 225 8 227 6 2 -1 -85 -40 -192 -86 -108 -46 -192 -86
-188 -90 4 -4 93 -30 198 -59 183 -51 203 -57 194 -64 -2 -2 -57 -41 -121 -88
-65 -46 -118 -86 -118 -89 0 -3 62 -4 137 -3 l138 3 -30 -25 c-16 -14 -56 -42
-87 -63 -32 -20 -58 -40 -58 -44 0 -5 45 -8 101 -8 l101 0 -6 28 c-28 146 -56
470 -56 659 0 124 -3 163 -12 162 -7 0 -76 -34 -153 -76z"/>
<path d="M2533 3977 c3 -7 15 -63 28 -125 l23 -112 285 0 c156 0 282 2 280 4
-2 2 -119 49 -259 104 -140 55 -279 110 -309 121 -38 16 -52 18 -48 8z"/>
<path d="M3550 3380 c-6 -11 -8 -20 -6 -20 3 0 10 9 16 20 6 11 8 20 6 20 -3
0 -10 -9 -16 -20z"/>
<path d="M2684 3343 c3 -10 19 -72 36 -138 17 -66 33 -126 35 -133 3 -9 21 -4
65 18 96 49 176 63 320 57 86 -3 144 -11 188 -25 l62 -20 0 129 0 129 -356 0
c-334 0 -355 -1 -350 -17z"/>
<path d="M3600 3310 c-6 -11 -8 -20 -6 -20 3 0 10 9 16 20 6 11 8 20 6 20 -3
0 -10 -9 -16 -20z"/>
<path d="M3640 3240 c-6 -11 -8 -20 -6 -20 3 0 10 9 16 20 6 11 8 20 6 20 -3
0 -10 -9 -16 -20z"/>
<path d="M3573 3083 c26 -2 67 -2 90 0 23 2 2 3 -48 3 -49 0 -68 -1 -42 -3z"/>
<path d="M3927 3083 c18 -2 50 -2 70 0 21 2 7 4 -32 4 -38 0 -55 -2 -38 -4z"/>
<path d="M3510 3056 c0 -15 62 -253 69 -264 5 -9 73 -12 245 -12 131 -1 240 1
243 3 2 3 1 41 -3 86 l-7 82 -95 -6 c-175 -11 -351 31 -434 103 -10 8 -18 12
-18 8z"/>
<path d="M3618 3013 c7 -3 16 -2 19 1 4 3 -2 6 -13 5 -11 0 -14 -3 -6 -6z"/>
<path d="M3893 3013 c26 -2 67 -2 90 0 23 2 2 3 -48 3 -49 0 -68 -1 -42 -3z"/>
<path d="M3728 2983 c17 -2 47 -2 65 0 17 2 3 4 -33 4 -36 0 -50 -2 -32 -4z"/>
<path d="M3853 2663 c26 -2 67 -2 90 0 23 2 2 3 -48 3 -49 0 -68 -1 -42 -3z"/>
<path d="M2994 2153 c4 -22 26 -188 26 -200 0 -2 86 -3 190 -3 l190 0 0 115 0
115 -206 0 -206 0 6 -27z"/>
<path d="M3893 2082 c-57 -1 -103 -5 -103 -9 0 -16 63 -209 71 -218 8 -8 279
-10 285 -2 3 4 -27 221 -31 225 -6 6 -101 8 -222 4z"/>
<path d="M4133 1723 c9 -2 23 -2 30 0 6 3 -1 5 -18 5 -16 0 -22 -2 -12 -5z"/>
<path d="M4078 1613 c23 -2 61 -2 85 0 23 2 4 4 -43 4 -47 0 -66 -2 -42 -4z"/>
<path d="M3958 1583 c12 -2 30 -2 40 0 9 3 -1 5 -23 4 -22 0 -30 -2 -17 -4z"/>
<path d="M3980 1500 c-6 -11 -8 -20 -6 -20 3 0 10 9 16 20 6 11 8 20 6 20 -3
0 -10 -9 -16 -20z"/>
<path d="M4183 1513 c9 -2 25 -2 35 0 9 3 1 5 -18 5 -19 0 -27 -2 -17 -5z"/>
<path d="M4200 1410 c-6 -11 -8 -20 -6 -20 3 0 10 9 16 20 6 11 8 20 6 20 -3
0 -10 -9 -16 -20z"/>
<path d="M4116 1013 c-6 -14 -5 -15 5 -6 7 7 10 15 7 18 -3 3 -9 -2 -12 -12z"/>
<path d="M4140 830 c-6 -11 -8 -20 -6 -20 3 0 10 9 16 20 6 11 8 20 6 20 -3 0
-10 -9 -16 -20z"/>
<path d="M4288 813 c23 -2 61 -2 85 0 23 2 4 4 -43 4 -47 0 -66 -2 -42 -4z"/>
<path d="M3055 781 c-3 -6 -10 -48 -15 -93 -11 -95 -26 -153 -64 -253 -30 -77
-139 -289 -192 -372 -19 -29 -34 -56 -34 -58 0 -3 114 -4 252 -3 l253 3 16
104 16 104 -34 64 c-37 72 -42 120 -16 163 19 33 75 67 129 78 l39 8 0 129 0
130 -172 3 c-106 1 -174 -1 -178 -7z"/>
<path d="M4070 748 c0 -122 -79 -492 -134 -628 -14 -35 -26 -67 -26 -72 0 -4
93 -8 206 -8 l206 0 -6 38 c-3 20 -17 107 -30 192 -44 278 -46 242 12 305 51
56 98 140 104 185 l3 25 -167 1 -168 1 0 -39z"/>
<path d="M6166 708 c-4 -48 -20 -121 -37 -173 -35 -104 -142 -316 -223 -440
-31 -47 -56 -88 -56 -90 0 -3 113 -5 251 -5 l250 0 33 73 c18 39 39 89 47 109
13 37 12 39 -18 70 -43 46 -53 70 -53 127 0 39 6 56 27 82 32 38 78 59 129 59
l36 0 -6 58 c-3 31 -8 92 -12 135 l-6 77 -178 0 -177 0 -7 -82z"/>
<path d="M6665 778 c-2 -7 -13 -58 -25 -113 -11 -55 -49 -221 -83 -370 l-63
-270 220 -3 c120 -1 220 -1 222 1 4 3 -31 378 -42 455 l-6 42 56 0 56 0 0 135
0 135 -165 0 c-124 0 -167 -3 -170 -12z"/>
</g>
</svg>
